<svg id="visual" viewBox="0 0 450 900" width="450" height="900" xmlns="http://www.w3.org/2000/svg" xmlns:xlink="http://www.w3.org/1999/xlink" version="1.1"><rect x="0" y="0" width="450" height="900" fill="#fff"></rect><defs><linearGradient id="grad1_0" x1="0%" y1="100%" x2="100%" y2="0%"><stop offset="30%" stop-color="#f8ad58" stop-opacity="1"></stop><stop offset="70%" stop-color="#f8ad58" stop-opacity="1"></stop></linearGradient></defs><defs><linearGradient id="grad1_1" x1="0%" y1="100%" x2="100%" y2="0%"><stop offset="30%" stop-color="#f8ad58" stop-opacity="1"></stop><stop offset="70%" stop-color="#fcb870" stop-opacity="1"></stop></linearGradient></defs><defs><linearGradient id="grad1_2" x1="0%" y1="100%" x2="100%" y2="0%"><stop offset="30%" stop-color="#ffc488" stop-opacity="1"></stop><stop offset="70%" stop-color="#fcb870" stop-opacity="1"></stop></linearGradient></defs><defs><linearGradient id="grad1_3" x1="0%" y1="100%" x2="100%" y2="0%"><stop offset="30%" stop-color="#ffc488" stop-opacity="1"></stop><stop offset="70%" stop-color="#ffd09f" stop-opacity="1"></stop></linearGradient></defs><defs><linearGradient id="grad1_4" x1="0%" y1="100%" x2="100%" y2="0%"><stop offset="30%" stop-color="#ffdbb7" stop-opacity="1"></stop><stop offset="70%" stop-color="#ffd09f" stop-opacity="1"></stop></linearGradient></defs><defs><linearGradient id="grad1_5" x1="0%" y1="100%" x2="100%" y2="0%"><stop offset="30%" stop-color="#ffdbb7" stop-opacity="1"></stop><stop offset="70%" stop-color="#ffe7cf" stop-opacity="1"></stop></linearGradient></defs><defs><linearGradient id="grad1_6" x1="0%" y1="100%" x2="100%" y2="0%"><stop offset="30%" stop-color="#fff3e7" stop-opacity="1"></stop><stop offset="70%" stop-color="#ffe7cf" stop-opacity="1"></stop></linearGradient></defs><defs><linearGradient id="grad1_7" x1="0%" y1="100%" x2="100%" y2="0%"><stop offset="30%" stop-color="#fff3e7" stop-opacity="1"></stop><stop offset="70%" stop-color="#ffffff" stop-opacity="1"></stop></linearGradient></defs><defs><linearGradient id="grad2_0" x1="0%" y1="100%" x2="100%" y2="0%"><stop offset="30%" stop-color="#f8ad58" stop-opacity="1"></stop><stop offset="70%" stop-color="#f8ad58" stop-opacity="1"></stop></linearGradient></defs><defs><linearGradient id="grad2_1" x1="0%" y1="100%" x2="100%" y2="0%"><stop offset="30%" stop-color="#fcb870" stop-opacity="1"></stop><stop offset="70%" stop-color="#f8ad58" stop-opacity="1"></stop></linearGradient></defs><defs><linearGradient id="grad2_2" x1="0%" y1="100%" x2="100%" y2="0%"><stop offset="30%" stop-color="#fcb870" stop-opacity="1"></stop><stop offset="70%" stop-color="#ffc488" stop-opacity="1"></stop></linearGradient></defs><defs><linearGradient id="grad2_3" x1="0%" y1="100%" x2="100%" y2="0%"><stop offset="30%" stop-color="#ffd09f" stop-opacity="1"></stop><stop offset="70%" stop-color="#ffc488" stop-opacity="1"></stop></linearGradient></defs><defs><linearGradient id="grad2_4" x1="0%" y1="100%" x2="100%" y2="0%"><stop offset="30%" stop-color="#ffd09f" stop-opacity="1"></stop><stop offset="70%" stop-color="#ffdbb7" stop-opacity="1"></stop></linearGradient></defs><defs><linearGradient id="grad2_5" x1="0%" y1="100%" x2="100%" y2="0%"><stop offset="30%" stop-color="#ffe7cf" stop-opacity="1"></stop><stop offset="70%" stop-color="#ffdbb7" stop-opacity="1"></stop></linearGradient></defs><defs><linearGradient id="grad2_6" x1="0%" y1="100%" x2="100%" y2="0%"><stop offset="30%" stop-color="#ffe7cf" stop-opacity="1"></stop><stop offset="70%" stop-color="#fff3e7" stop-opacity="1"></stop></linearGradient></defs><defs><linearGradient id="grad2_7" x1="0%" y1="100%" x2="100%" y2="0%"><stop offset="30%" stop-color="#ffffff" stop-opacity="1"></stop><stop offset="70%" stop-color="#fff3e7" stop-opacity="1"></stop></linearGradient></defs><g transform="translate(450, 900)"><path d="M-315 0C-314.3 -15.2 -313.5 -30.3 -308.8 -44.4C-304.1 -58.5 -295.5 -71.5 -289.8 -85.1C-284.1 -98.7 -281.4 -113 -275.6 -125.9C-269.9 -138.8 -261.1 -150.3 -254.1 -163.3C-247.1 -176.3 -241.9 -190.8 -232 -201C-222.2 -211.3 -207.6 -217.2 -195.8 -226C-184 -234.7 -174.8 -246.2 -163.3 -254.1C-151.8 -261.9 -137.9 -266.1 -125.5 -274.7C-113 -283.3 -102 -296.3 -88.5 -301.3C-74.9 -306.3 -58.9 -303.4 -43.7 -303.9C-28.5 -304.3 -14.3 -308.2 0 -312L0 0Z" fill="#fff9f3"></path><path d="M-275.6 0C-275 -13.3 -274.3 -26.5 -270.2 -38.9C-266.1 -51.2 -258.5 -62.5 -253.5 -74.4C-248.6 -86.4 -246.2 -98.9 -241.2 -110.1C-236.1 -121.4 -228.4 -131.5 -222.3 -142.9C-216.2 -154.2 -211.6 -167 -203 -175.9C-194.4 -184.9 -181.7 -190.1 -171.3 -197.7C-161 -205.4 -152.9 -215.4 -142.9 -222.3C-132.8 -229.2 -120.7 -232.9 -109.8 -240.4C-98.9 -247.9 -89.3 -259.2 -77.4 -263.6C-65.6 -268 -51.5 -265.5 -38.2 -265.9C-25 -266.3 -12.5 -269.6 0 -273L0 0Z" fill="#ffeddb"></path><path d="M-236.2 0C-235.7 -11.4 -235.1 -22.7 -231.6 -33.3C-228.1 -43.9 -221.6 -53.6 -217.3 -63.8C-213.1 -74 -211 -84.7 -206.7 -94.4C-202.4 -104.1 -195.8 -112.7 -190.5 -122.5C-185.3 -132.2 -181.4 -143.1 -174 -150.8C-166.6 -158.5 -155.7 -162.9 -146.9 -169.5C-138 -176 -131.1 -184.7 -122.5 -190.5C-113.8 -196.4 -103.4 -199.6 -94.1 -206C-84.8 -212.5 -76.5 -222.2 -66.3 -226C-56.2 -229.7 -44.1 -227.6 -32.8 -227.9C-21.4 -228.3 -10.7 -231.1 0 -234L0 0Z" fill="#ffe1c3"></path><path d="M-196.9 0C-196.4 -9.5 -196 -19 -193 -27.8C-190.1 -36.5 -184.7 -44.7 -181.1 -53.2C-177.5 -61.7 -175.9 -70.6 -172.3 -78.7C-168.7 -86.7 -163.2 -93.9 -158.8 -102C-154.4 -110.2 -151.2 -119.3 -145 -125.7C-138.9 -132.1 -129.8 -135.8 -122.4 -141.2C-115 -146.7 -109.2 -153.9 -102 -158.8C-94.8 -163.7 -86.2 -166.3 -78.4 -171.7C-70.6 -177.1 -63.8 -185.2 -55.3 -188.3C-46.8 -191.4 -36.8 -189.6 -27.3 -189.9C-17.8 -190.2 -8.9 -192.6 0 -195L0 0Z" fill="#ffd5ab"></path><path d="M-157.5 0C-157.1 -7.6 -156.8 -15.2 -154.4 -22.2C-152.1 -29.2 -147.7 -35.7 -144.9 -42.5C-142 -49.4 -140.7 -56.5 -137.8 -62.9C-134.9 -69.4 -130.5 -75.1 -127 -81.6C-123.5 -88.1 -120.9 -95.4 -116 -100.5C-111.1 -105.6 -103.8 -108.6 -97.9 -113C-92 -117.3 -87.4 -123.1 -81.6 -127C-75.9 -131 -68.9 -133.1 -62.7 -137.4C-56.5 -141.6 -51 -148.1 -44.2 -150.6C-37.5 -153.2 -29.4 -151.7 -21.8 -151.9C-14.3 -152.2 -7.1 -154.1 0 -156L0 0Z" fill="#ffca93"></path><path d="M-118.1 0C-117.8 -5.7 -117.6 -11.4 -115.8 -16.7C-114 -21.9 -110.8 -26.8 -108.7 -31.9C-106.5 -37 -105.5 -42.4 -103.4 -47.2C-101.2 -52 -97.9 -56.3 -95.3 -61.2C-92.6 -66.1 -90.7 -71.6 -87 -75.4C-83.3 -79.2 -77.9 -81.5 -73.4 -84.7C-69 -88 -65.5 -92.3 -61.2 -95.3C-56.9 -98.2 -51.7 -99.8 -47 -103C-42.4 -106.2 -38.3 -111.1 -33.2 -113C-28.1 -114.9 -22.1 -113.8 -16.4 -114C-10.7 -114.1 -5.3 -115.6 0 -117L0 0Z" fill="#fdbe7c"></path><path d="M-78.7 0C-78.6 -3.8 -78.4 -7.6 -77.2 -11.1C-76 -14.6 -73.9 -17.9 -72.4 -21.3C-71 -24.7 -70.3 -28.2 -68.9 -31.5C-67.5 -34.7 -65.3 -37.6 -63.5 -40.8C-61.8 -44.1 -60.5 -47.7 -58 -50.3C-55.5 -52.8 -51.9 -54.3 -49 -56.5C-46 -58.7 -43.7 -61.6 -40.8 -63.5C-37.9 -65.5 -34.5 -66.5 -31.4 -68.7C-28.3 -70.8 -25.5 -74.1 -22.1 -75.3C-18.7 -76.6 -14.7 -75.9 -10.9 -76C-7.1 -76.1 -3.6 -77 0 -78L0 0Z" fill="#fab364"></path><path d="M-39.4 0C-39.3 -1.9 -39.2 -3.8 -38.6 -5.6C-38 -7.3 -36.9 -8.9 -36.2 -10.6C-35.5 -12.3 -35.2 -14.1 -34.5 -15.7C-33.7 -17.3 -32.6 -18.8 -31.8 -20.4C-30.9 -22 -30.2 -23.9 -29 -25.1C-27.8 -26.4 -26 -27.2 -24.5 -28.2C-23 -29.3 -21.8 -30.8 -20.4 -31.8C-19 -32.7 -17.2 -33.3 -15.7 -34.3C-14.1 -35.4 -12.8 -37 -11.1 -37.7C-9.4 -38.3 -7.4 -37.9 -5.5 -38C-3.6 -38 -1.8 -38.5 0 -39L0 0Z" fill="#f8ad58"></path></g><g transform="translate(0, 0)"><path d="M308 0C302.5 13.7 296.9 27.5 297.9 42.8C299 58.2 306.5 75.2 302.2 88.7C298 102.3 281.8 112.5 272 124.2C262.2 135.9 258.7 149.2 254.1 163.3C249.4 177.3 243.7 192.1 233.5 202.4C223.4 212.6 208.8 218.5 197.1 227.5C185.4 236.5 176.5 248.6 164.9 256.6C153.3 264.5 138.8 268.3 125.9 275.6C112.9 282.9 101.4 293.8 87.9 299.4C74.4 305 58.8 305.3 43.8 304.9C28.8 304.4 14.4 303.2 0 302L0 0Z" fill="#fff9f3"></path><path d="M269.5 0C264.7 12 259.8 24 260.7 37.5C261.6 50.9 268.2 65.8 264.5 77.7C260.7 89.5 246.6 98.4 238 108.7C229.4 118.9 226.3 130.6 222.3 142.9C218.3 155.1 213.2 168 204.3 177.1C195.5 186.1 182.7 191.2 172.5 199C162.2 206.9 154.5 217.5 144.3 224.5C134.1 231.5 121.5 234.8 110.1 241.2C98.8 247.6 88.7 257 76.9 261.9C65.1 266.8 51.5 267.1 38.4 266.8C25.2 266.4 12.6 265.3 0 264.3L0 0Z" fill="#ffeddb"></path><path d="M231 0C226.8 10.3 222.7 20.6 223.5 32.1C224.2 43.6 229.9 56.4 226.7 66.6C223.5 76.7 211.3 84.4 204 93.2C196.6 102 194 111.9 190.5 122.5C187.1 133 182.8 144 175.1 151.8C167.5 159.5 156.6 163.9 147.8 170.6C139.1 177.4 132.4 186.5 123.7 192.4C114.9 198.4 104.1 201.2 94.4 206.7C84.7 212.2 76.1 220.3 65.9 224.5C55.8 228.7 44.1 229 32.9 228.6C21.6 228.3 10.8 227.4 0 226.5L0 0Z" fill="#ffe1c3"></path><path d="M192.5 0C189 8.6 185.6 17.2 186.2 26.8C186.8 36.4 191.6 47 188.9 55.5C186.2 63.9 176.1 70.3 170 77.6C163.9 85 161.7 93.3 158.8 102C155.9 110.8 152.3 120 146 126.5C139.6 132.9 130.5 136.6 123.2 142.2C115.9 147.8 110.3 155.4 103.1 160.4C95.8 165.3 86.8 167.7 78.7 172.3C70.6 176.8 63.4 183.6 54.9 187.1C46.5 190.6 36.8 190.8 27.4 190.5C18 190.3 9 189.5 0 188.8L0 0Z" fill="#ffd5ab"></path><path d="M154 0C151.2 6.9 148.5 13.7 149 21.4C149.5 29.1 153.3 37.6 151.1 44.4C149 51.2 140.9 56.2 136 62.1C131.1 68 129.3 74.6 127 81.6C124.7 88.7 121.8 96 116.8 101.2C111.7 106.3 104.4 109.2 98.6 113.7C92.7 118.2 88.3 124.3 82.4 128.3C76.6 132.3 69.4 134.2 62.9 137.8C56.5 141.5 50.7 146.9 44 149.7C37.2 152.5 29.4 152.7 21.9 152.4C14.4 152.2 7.2 151.6 0 151L0 0Z" fill="#ffca93"></path><path d="M115.5 0C113.4 5.2 111.3 10.3 111.7 16.1C112.1 21.8 114.9 28.2 113.3 33.3C111.7 38.4 105.7 42.2 102 46.6C98.3 51 97 56 95.3 61.2C93.5 66.5 91.4 72 87.6 75.9C83.8 79.7 78.3 81.9 73.9 85.3C69.5 88.7 66.2 93.2 61.8 96.2C57.5 99.2 52.1 100.6 47.2 103.4C42.3 106.1 38 110.2 33 112.3C27.9 114.4 22.1 114.5 16.4 114.3C10.8 114.2 5.4 113.7 0 113.3L0 0Z" fill="#fdbe7c"></path><path d="M77 0C75.6 3.4 74.2 6.9 74.5 10.7C74.7 14.5 76.6 18.8 75.6 22.2C74.5 25.6 70.4 28.1 68 31.1C65.5 34 64.7 37.3 63.5 40.8C62.4 44.3 60.9 48 58.4 50.6C55.8 53.2 52.2 54.6 49.3 56.9C46.4 59.1 44.1 62.2 41.2 64.1C38.3 66.1 34.7 67.1 31.5 68.9C28.2 70.7 25.4 73.4 22 74.8C18.6 76.2 14.7 76.3 11 76.2C7.2 76.1 3.6 75.8 0 75.5L0 0Z" fill="#fab364"></path><path d="M38.5 0C37.8 1.7 37.1 3.4 37.2 5.4C37.4 7.3 38.3 9.4 37.8 11.1C37.2 12.8 35.2 14.1 34 15.5C32.8 17 32.3 18.7 31.8 20.4C31.2 22.2 30.5 24 29.2 25.3C27.9 26.6 26.1 27.3 24.6 28.4C23.2 29.6 22.1 31.1 20.6 32.1C19.2 33.1 17.4 33.5 15.7 34.5C14.1 35.4 12.7 36.7 11 37.4C9.3 38.1 7.4 38.2 5.5 38.1C3.6 38.1 1.8 37.9 0 37.8L0 0Z" fill="#f8ad58"></path></g></svg>