<svg id="visual" viewBox="0 0 960 100" width="960" height="100" xmlns="http://www.w3.org/2000/svg" xmlns:xlink="http://www.w3.org/1999/xlink" version="1.1"><path d="M0 56L31 74L62 82L93 21L124 58L155 86L186 27L217 73L248 49L279 85L310 40L341 33L372 79L403 20L434 53L465 10L495 53L526 13L557 64L588 64L619 61L650 80L681 42L712 84L743 38L774 26L805 57L836 53L867 59L898 11L929 20L960 72L960 101L929 101L898 101L867 101L836 101L805 101L774 101L743 101L712 101L681 101L650 101L619 101L588 101L557 101L526 101L495 101L465 101L434 101L403 101L372 101L341 101L310 101L279 101L248 101L217 101L186 101L155 101L124 101L93 101L62 101L31 101L0 101Z" fill="#39565A" stroke-linecap="square" stroke-linejoin="bevel"></path></svg>